<svg xmlns="http://www.w3.org/2000/svg" viewBox="0 0 55.48 45.68"><defs><style>.cls-1{isolation:isolate;}.cls-2{fill:#277bba;}.cls-2,.cls-3,.cls-4,.cls-5,.cls-6{mix-blend-mode:darken;}.cls-3{fill:#5aa0e0;}.cls-4{fill:#a1e9ff;}.cls-5{fill:#80ccff;}.cls-6{fill:#45a5d6;}</style></defs><title>Asset 3</title><g class="cls-1"><g id="Layer_2" data-name="Layer 2"><g id="Layer_1-2" data-name="Layer 1"><polygon class="cls-2" points="34.61 22.81 55.48 32.51 55.48 12.9 34.61 22.81"/><polygon class="cls-3" points="34.61 22.81 55.48 12.9 27.74 0 27.74 19.61 34.61 22.81"/><polygon class="cls-3" points="27.74 26.07 27.74 45.68 55.48 32.51 34.61 22.81 27.74 26.07"/><polygon class="cls-4" points="27.74 26.07 34.61 22.81 27.74 19.61 27.74 26.07"/><polygon class="cls-5" points="20.87 22.81 27.74 19.61 27.74 0 0 12.9 20.87 22.81"/><polygon class="cls-4" points="20.87 22.81 27.74 26.07 27.74 19.61 20.87 22.81"/><polygon class="cls-5" points="20.87 22.81 0 32.51 27.74 45.68 27.74 26.07 20.87 22.81"/><polygon class="cls-6" points="0 32.51 20.87 22.81 0 12.9 0 32.51"/></g></g></g></svg>